<mxfile host="65bd71144e">
    <diagram id="uH7TFUyroTzwectZcCgI" name="ページ1">
        <mxGraphModel dx="1777" dy="1020" grid="0" gridSize="10" guides="1" tooltips="1" connect="1" arrows="1" fold="1" page="0" pageScale="1" pageWidth="827" pageHeight="1169" background="#524F4F" math="0" shadow="0">
            <root>
                <mxCell id="0"/>
                <mxCell id="1" parent="0"/>
                <mxCell id="24" value="" style="group;resizeWidth=0;resizeHeight=0;" parent="1" vertex="1" connectable="0">
                    <mxGeometry x="50" y="120" width="190" height="114" as="geometry"/>
                </mxCell>
                <object label="template&amp;lt;T&amp;gt; RenderContext" id="2">
                    <mxCell style="swimlane;fontStyle=0;childLayout=stackLayout;horizontal=1;startSize=30;horizontalStack=0;resizeParent=1;resizeParentMax=0;resizeLast=0;collapsible=1;marginBottom=0;whiteSpace=wrap;html=1;fillColor=#782619;fontColor=#FCFCFC;" parent="24" vertex="1">
                        <mxGeometry width="190" height="114.28571428571428" as="geometry"/>
                    </mxCell>
                </object>
                <mxCell id="3" value="・描画データ保存、ZSort" style="text;align=left;verticalAlign=middle;spacingLeft=4;spacingRight=4;overflow=hidden;points=[[0,0.5],[1,0.5]];portConstraint=eastwest;rotatable=0;whiteSpace=wrap;html=1;fillColor=#303030;fontColor=#FFFFFF;" parent="2" vertex="1">
                    <mxGeometry y="30" width="190" height="30" as="geometry"/>
                </mxCell>
                <mxCell id="44" value="・描画コマンド発行" style="text;align=left;verticalAlign=middle;spacingLeft=4;spacingRight=4;overflow=hidden;points=[[0,0.5],[1,0.5]];portConstraint=eastwest;rotatable=0;whiteSpace=wrap;html=1;fillColor=#303030;fontColor=#FFFFFF;" parent="2" vertex="1">
                    <mxGeometry y="60" width="190" height="24.285714285714285" as="geometry"/>
                </mxCell>
                <mxCell id="5" value="-&amp;nbsp; 描画データ&amp;lt;T&amp;gt;" style="text;align=left;verticalAlign=middle;spacingLeft=4;spacingRight=4;overflow=hidden;points=[[0,0.5],[1,0.5]];portConstraint=eastwest;rotatable=0;whiteSpace=wrap;html=1;strokeColor=default;fillColor=#303030;fontColor=#FFFFFF;" parent="2" vertex="1">
                    <mxGeometry y="84.28571428571428" width="190" height="30" as="geometry"/>
                </mxCell>
                <mxCell id="30" value="" style="group;" parent="1" vertex="1" connectable="0">
                    <mxGeometry x="680" y="119.99999999999999" width="310" height="190" as="geometry"/>
                </mxCell>
                <mxCell id="6" value="RenderContextManager" style="swimlane;fontStyle=0;childLayout=stackLayout;horizontal=1;startSize=30;horizontalStack=0;resizeParent=1;resizeParentMax=0;resizeLast=0;collapsible=1;marginBottom=0;whiteSpace=wrap;html=1;fillColor=#782619;fontColor=#FFFFFF;" parent="30" vertex="1">
                    <mxGeometry width="310" height="190" as="geometry"/>
                </mxCell>
                <mxCell id="7" value="・RenderSetの管理" style="text;align=left;verticalAlign=middle;spacingLeft=4;spacingRight=4;overflow=hidden;points=[[0,0.5],[1,0.5]];portConstraint=eastwest;rotatable=0;whiteSpace=wrap;html=1;fillColor=#303030;fontColor=#FFFFFF;" parent="6" vertex="1">
                    <mxGeometry y="30" width="310" height="30" as="geometry"/>
                </mxCell>
                <mxCell id="31" value="・RenderSetの作成" style="text;align=left;verticalAlign=middle;spacingLeft=4;spacingRight=4;overflow=hidden;points=[[0,0.5],[1,0.5]];portConstraint=eastwest;rotatable=0;whiteSpace=wrap;html=1;fillColor=#303030;fillStyle=auto;gradientColor=none;fontColor=#FFFFFF;" parent="6" vertex="1">
                    <mxGeometry y="60" width="310" height="30" as="geometry"/>
                </mxCell>
                <mxCell id="9" value="・グラフィックスパイプラインの作成" style="text;align=left;verticalAlign=middle;spacingLeft=4;spacingRight=4;overflow=hidden;points=[[0,0.5],[1,0.5]];portConstraint=eastwest;rotatable=0;whiteSpace=wrap;html=1;fillColor=#303030;fontColor=#FFFFFF;" parent="6" vertex="1">
                    <mxGeometry y="90" width="310" height="30" as="geometry"/>
                </mxCell>
                <mxCell id="8" value="・描画するRenderContextをまとめたlistの作成" style="text;align=left;verticalAlign=middle;spacingLeft=4;spacingRight=4;overflow=hidden;points=[[0,0.5],[1,0.5]];portConstraint=eastwest;rotatable=0;whiteSpace=wrap;html=1;fillColor=#303030;fontColor=#FFFFFF;" parent="6" vertex="1">
                    <mxGeometry y="120" width="310" height="30" as="geometry"/>
                </mxCell>
                <mxCell id="32" value="- std::unordered_map&amp;lt;Key, RenderSet&amp;gt;&lt;br&gt;- std::array&amp;lt;std::list&amp;lt;RenderContext*&amp;gt;, ブレンド数&amp;gt;" style="text;align=left;verticalAlign=middle;spacingLeft=4;spacingRight=4;overflow=hidden;points=[[0,0.5],[1,0.5]];portConstraint=eastwest;rotatable=0;whiteSpace=wrap;html=1;strokeColor=default;fillColor=#303030;fontColor=#FFFFFF;" parent="6" vertex="1">
                    <mxGeometry y="150" width="310" height="40" as="geometry"/>
                </mxCell>
                <mxCell id="115" value="" style="group;fontColor=#FFFFFF;" parent="1" vertex="1" connectable="0">
                    <mxGeometry x="30" y="420" width="310" height="220" as="geometry"/>
                </mxCell>
                <mxCell id="116" value="RenderingManager" style="swimlane;fontStyle=0;childLayout=stackLayout;horizontal=1;startSize=30;horizontalStack=0;resizeParent=1;resizeParentMax=0;resizeLast=0;collapsible=1;marginBottom=0;whiteSpace=wrap;html=1;fillColor=#B02CA7;fontColor=#FFFFFF;" parent="115" vertex="1">
                    <mxGeometry width="310" height="220" as="geometry"/>
                </mxCell>
                <mxCell id="117" value="・描画の管理" style="text;align=left;verticalAlign=middle;spacingLeft=4;spacingRight=4;overflow=hidden;points=[[0,0.5],[1,0.5]];portConstraint=eastwest;rotatable=0;whiteSpace=wrap;html=1;fillColor=#303030;fontColor=#FFFFFF;" parent="116" vertex="1">
                    <mxGeometry y="30" width="310" height="30" as="geometry"/>
                </mxCell>
                <mxCell id="118" value="・RenderContextManagerからのlist受け取り" style="text;align=left;verticalAlign=middle;spacingLeft=4;spacingRight=4;overflow=hidden;points=[[0,0.5],[1,0.5]];portConstraint=eastwest;rotatable=0;whiteSpace=wrap;html=1;fillColor=#303030;fontColor=#FFFFFF;" parent="116" vertex="1">
                    <mxGeometry y="60" width="310" height="30" as="geometry"/>
                </mxCell>
                <mxCell id="119" value="・ExecuteCommnadlists" style="text;align=left;verticalAlign=middle;spacingLeft=4;spacingRight=4;overflow=hidden;points=[[0,0.5],[1,0.5]];portConstraint=eastwest;rotatable=0;whiteSpace=wrap;html=1;fillColor=#303030;fontColor=#FFFFFF;" parent="116" vertex="1">
                    <mxGeometry y="90" width="310" height="30" as="geometry"/>
                </mxCell>
                <mxCell id="123" value="・ポストエフェクトの管理" style="text;align=left;verticalAlign=middle;spacingLeft=4;spacingRight=4;overflow=hidden;points=[[0,0.5],[1,0.5]];portConstraint=eastwest;rotatable=0;whiteSpace=wrap;html=1;fillColor=#303030;fontColor=#FFFFFF;" parent="116" vertex="1">
                    <mxGeometry y="120" width="310" height="30" as="geometry"/>
                </mxCell>
                <mxCell id="120" value="・DoubleBufferのIndex切り替え" style="text;align=left;verticalAlign=middle;spacingLeft=4;spacingRight=4;overflow=hidden;points=[[0,0.5],[1,0.5]];portConstraint=eastwest;rotatable=0;whiteSpace=wrap;html=1;fillColor=#303030;fontColor=#FFFFFF;" parent="116" vertex="1">
                    <mxGeometry y="150" width="310" height="30" as="geometry"/>
                </mxCell>
                <mxCell id="121" value="- 各種レンダーターゲット&lt;br&gt;- DepthBbuffer" style="text;align=left;verticalAlign=middle;spacingLeft=4;spacingRight=4;overflow=hidden;points=[[0,0.5],[1,0.5]];portConstraint=eastwest;rotatable=0;whiteSpace=wrap;html=1;strokeColor=default;fillColor=#303030;fontColor=#FFFFFF;" parent="116" vertex="1">
                    <mxGeometry y="180" width="310" height="40" as="geometry"/>
                </mxCell>
                <mxCell id="28" value="" style="group;" parent="1" vertex="1" connectable="0">
                    <mxGeometry x="300" y="119.99999999999999" width="285" height="120" as="geometry"/>
                </mxCell>
                <mxCell id="10" value="RenderSet" style="swimlane;fontStyle=0;childLayout=stackLayout;horizontal=1;startSize=30;horizontalStack=0;resizeParent=1;resizeParentMax=0;resizeLast=0;collapsible=1;marginBottom=0;whiteSpace=wrap;html=1;fillColor=#782619;fontColor=#F7F7F7;" parent="28" vertex="1">
                    <mxGeometry width="284.68" height="120" as="geometry"/>
                </mxCell>
                <mxCell id="11" value="・各ブレンドタイプに応じたBaseRenderContextを管理" style="text;align=left;verticalAlign=middle;spacingLeft=4;spacingRight=4;overflow=hidden;points=[[0,0.5],[1,0.5]];portConstraint=eastwest;rotatable=0;whiteSpace=wrap;html=1;fillColor=#303030;fontColor=#FFFFFF;" parent="10" vertex="1">
                    <mxGeometry y="30" width="284.68" height="50" as="geometry"/>
                </mxCell>
                <mxCell id="33" value="- std::array&amp;lt;BaseRenderContext, ブレンド数&amp;gt;" style="text;align=left;verticalAlign=middle;spacingLeft=4;spacingRight=4;overflow=hidden;points=[[0,0.5],[1,0.5]];portConstraint=eastwest;rotatable=0;whiteSpace=wrap;html=1;strokeColor=default;fillColor=#303030;fontColor=#FFFFFF;" parent="10" vertex="1">
                    <mxGeometry y="80" width="284.68" height="40" as="geometry"/>
                </mxCell>
                <mxCell id="151" value="listの受け渡し" style="text;html=1;align=center;verticalAlign=middle;whiteSpace=wrap;rounded=0;labelBackgroundColor=none;labelBorderColor=#FFFFFF;fontColor=#FAFAFA;" parent="1" vertex="1">
                    <mxGeometry x="320" y="320" width="120" height="30" as="geometry"/>
                </mxCell>
                <mxCell id="152" value="" style="endArrow=none;html=1;exitX=1;exitY=0.056;exitDx=0;exitDy=0;exitPerimeter=0;entryX=0.001;entryY=0.026;entryDx=0;entryDy=0;entryPerimeter=0;fontColor=#F0F0F0;strokeColor=#FAFAFA;" parent="1" source="116" target="179" edge="1">
                    <mxGeometry width="50" height="50" relative="1" as="geometry">
                        <mxPoint x="410" y="590" as="sourcePoint"/>
                        <mxPoint x="567" y="430" as="targetPoint"/>
                    </mxGeometry>
                </mxCell>
                <mxCell id="179" value="描画フローチャート" style="swimlane;fillColor=#B02CA7;fontColor=#FFFFFF;" parent="1" vertex="1">
                    <mxGeometry x="450" y="420" width="600" height="400" as="geometry"/>
                </mxCell>
                <mxCell id="197" style="edgeStyle=none;html=1;entryX=0.5;entryY=0;entryDx=0;entryDy=0;startArrow=none;startFill=0;endArrow=open;endFill=0;fontColor=#F0F0F0;" parent="179" source="185" target="186" edge="1">
                    <mxGeometry relative="1" as="geometry"/>
                </mxCell>
                <mxCell id="185" value="描画処理開始" style="strokeWidth=2;html=1;shape=mxgraph.flowchart.terminator;whiteSpace=wrap;fillColor=#303030;fontColor=#FFFFFF;" parent="179" vertex="1">
                    <mxGeometry x="25" y="30" width="110" height="40" as="geometry"/>
                </mxCell>
                <mxCell id="198" style="edgeStyle=none;html=1;entryX=0.5;entryY=0;entryDx=0;entryDy=0;startArrow=none;startFill=0;endArrow=open;endFill=0;fontColor=#F0F0F0;" parent="179" source="186" target="187" edge="1">
                    <mxGeometry relative="1" as="geometry"/>
                </mxCell>
                <mxCell id="186" value="描画データセット" style="rounded=1;whiteSpace=wrap;html=1;absoluteArcSize=1;arcSize=14;strokeWidth=2;fillColor=#303030;fontColor=#FFFFFF;" parent="179" vertex="1">
                    <mxGeometry x="17.5" y="110" width="125" height="40" as="geometry"/>
                </mxCell>
                <mxCell id="199" style="edgeStyle=none;html=1;entryX=0.5;entryY=0;entryDx=0;entryDy=0;startArrow=none;startFill=0;endArrow=open;endFill=0;fontColor=#F0F0F0;" parent="179" source="187" target="188" edge="1">
                    <mxGeometry relative="1" as="geometry"/>
                </mxCell>
                <mxCell id="187" value="ブレンドをしない&lt;br&gt;オブジェクトの描画" style="rounded=1;whiteSpace=wrap;html=1;absoluteArcSize=1;arcSize=14;strokeWidth=2;fillColor=#303030;fontColor=#FFFFFF;" parent="179" vertex="1">
                    <mxGeometry x="10" y="180" width="140" height="50" as="geometry"/>
                </mxCell>
                <mxCell id="202" style="edgeStyle=none;html=1;entryX=0;entryY=0.5;entryDx=0;entryDy=0;startArrow=none;startFill=0;endArrow=open;endFill=0;exitX=1;exitY=0.5;exitDx=0;exitDy=0;fontColor=#F0F0F0;" parent="179" source="188" target="189" edge="1">
                    <mxGeometry relative="1" as="geometry">
                        <Array as="points">
                            <mxPoint x="170" y="285"/>
                            <mxPoint x="180" y="130"/>
                        </Array>
                    </mxGeometry>
                </mxCell>
                <mxCell id="188" value="SkyBox描画" style="rounded=1;whiteSpace=wrap;html=1;absoluteArcSize=1;arcSize=14;strokeWidth=2;fillColor=#303030;fontColor=#FFFFFF;" parent="179" vertex="1">
                    <mxGeometry x="10" y="260" width="140" height="50" as="geometry"/>
                </mxCell>
                <mxCell id="203" style="edgeStyle=none;html=1;entryX=0.5;entryY=0;entryDx=0;entryDy=0;startArrow=none;startFill=0;endArrow=open;endFill=0;fontColor=#F0F0F0;" parent="179" source="189" target="190" edge="1">
                    <mxGeometry relative="1" as="geometry"/>
                </mxCell>
                <mxCell id="189" value="ブレンドをする&lt;br&gt;オブジェクトをZSort" style="rounded=1;whiteSpace=wrap;html=1;absoluteArcSize=1;arcSize=14;strokeWidth=2;fillColor=#303030;fontColor=#FFFFFF;" parent="179" vertex="1">
                    <mxGeometry x="200" y="105" width="150" height="50" as="geometry"/>
                </mxCell>
                <mxCell id="204" style="edgeStyle=none;html=1;entryX=0.5;entryY=0;entryDx=0;entryDy=0;startArrow=none;startFill=0;endArrow=open;endFill=0;fontColor=#F0F0F0;" parent="179" source="190" target="191" edge="1">
                    <mxGeometry relative="1" as="geometry"/>
                </mxCell>
                <mxCell id="190" value="DeferredRendering" style="rounded=1;whiteSpace=wrap;html=1;absoluteArcSize=1;arcSize=14;strokeWidth=2;fillColor=#303030;fontColor=#FFFFFF;" parent="179" vertex="1">
                    <mxGeometry x="200" y="180" width="150" height="50" as="geometry"/>
                </mxCell>
                <mxCell id="205" style="edgeStyle=none;html=1;entryX=0;entryY=0.5;entryDx=0;entryDy=0;startArrow=none;startFill=0;endArrow=open;endFill=0;exitX=1;exitY=0.5;exitDx=0;exitDy=0;fontColor=#F0F0F0;" parent="179" source="191" target="192" edge="1">
                    <mxGeometry relative="1" as="geometry">
                        <Array as="points">
                            <mxPoint x="370" y="285"/>
                            <mxPoint x="380" y="130"/>
                        </Array>
                    </mxGeometry>
                </mxCell>
                <mxCell id="191" value="ブレンドをする&lt;br&gt;オブジェクトの描画" style="rounded=1;whiteSpace=wrap;html=1;absoluteArcSize=1;arcSize=14;strokeWidth=2;fillColor=#303030;fontColor=#FFFFFF;" parent="179" vertex="1">
                    <mxGeometry x="200" y="260" width="150" height="50" as="geometry"/>
                </mxCell>
                <mxCell id="206" style="edgeStyle=none;html=1;entryX=0.5;entryY=0;entryDx=0;entryDy=0;startArrow=none;startFill=0;endArrow=open;endFill=0;fontColor=#F0F0F0;" parent="179" source="192" target="193" edge="1">
                    <mxGeometry relative="1" as="geometry"/>
                </mxCell>
                <mxCell id="192" value="深度値の書き込みを行わない&lt;br&gt;オブジェクトをZSort" style="rounded=1;whiteSpace=wrap;html=1;absoluteArcSize=1;arcSize=14;strokeWidth=2;fillColor=#303030;fontColor=#FFFFFF;" parent="179" vertex="1">
                    <mxGeometry x="400" y="105" width="180" height="50" as="geometry"/>
                </mxCell>
                <mxCell id="207" style="edgeStyle=none;html=1;entryX=0.5;entryY=0;entryDx=0;entryDy=0;startArrow=none;startFill=0;endArrow=open;endFill=0;fontColor=#F0F0F0;" parent="179" source="193" target="194" edge="1">
                    <mxGeometry relative="1" as="geometry"/>
                </mxCell>
                <mxCell id="193" value="深度値の書き込みを行わない&lt;br&gt;オブジェクトの描画" style="rounded=1;whiteSpace=wrap;html=1;absoluteArcSize=1;arcSize=14;strokeWidth=2;fillColor=#303030;fontColor=#FFFFFF;" parent="179" vertex="1">
                    <mxGeometry x="400" y="180" width="180" height="50" as="geometry"/>
                </mxCell>
                <mxCell id="208" style="edgeStyle=none;html=1;entryX=0.5;entryY=0;entryDx=0;entryDy=0;entryPerimeter=0;startArrow=none;startFill=0;endArrow=open;endFill=0;fontColor=#F0F0F0;" parent="179" source="194" target="195" edge="1">
                    <mxGeometry relative="1" as="geometry"/>
                </mxCell>
                <mxCell id="194" value="DrawCountのリセット" style="rounded=1;whiteSpace=wrap;html=1;absoluteArcSize=1;arcSize=14;strokeWidth=2;fillColor=#303030;fontColor=#FFFFFF;" parent="179" vertex="1">
                    <mxGeometry x="427.5" y="265" width="125" height="40" as="geometry"/>
                </mxCell>
                <mxCell id="195" value="描画処理終了" style="strokeWidth=2;html=1;shape=mxgraph.flowchart.terminator;whiteSpace=wrap;fillColor=#303030;fontColor=#FFFFFF;" parent="179" vertex="1">
                    <mxGeometry x="435" y="340" width="110" height="40" as="geometry"/>
                </mxCell>
                <mxCell id="180" value="" style="endArrow=diamondThin;endFill=1;endSize=24;html=1;exitX=1;exitY=0.133;exitDx=0;exitDy=0;exitPerimeter=0;entryX=-0.009;entryY=0.119;entryDx=0;entryDy=0;entryPerimeter=0;fontColor=#F0F0F0;strokeColor=#FFFFFF;" parent="1" source="2" target="10" edge="1">
                    <mxGeometry width="160" relative="1" as="geometry">
                        <mxPoint x="360" y="470" as="sourcePoint"/>
                        <mxPoint x="400" y="350" as="targetPoint"/>
                    </mxGeometry>
                </mxCell>
                <mxCell id="181" value="" style="endArrow=diamondThin;endFill=1;endSize=24;html=1;exitX=1.001;exitY=0.141;exitDx=0;exitDy=0;exitPerimeter=0;entryX=-0.003;entryY=0.083;entryDx=0;entryDy=0;entryPerimeter=0;fontColor=#F0F0F0;strokeColor=#FFFFFF;" parent="1" source="10" target="6" edge="1">
                    <mxGeometry width="160" relative="1" as="geometry">
                        <mxPoint x="645" y="190.90000000000003" as="sourcePoint"/>
                        <mxPoint x="712.7225600000002" y="189.99999999999994" as="targetPoint"/>
                    </mxGeometry>
                </mxCell>
                <mxCell id="182" value="" style="endArrow=open;startArrow=cross;endFill=0;startFill=0;endSize=8;startSize=10;html=1;entryX=0.5;entryY=0;entryDx=0;entryDy=0;exitX=0;exitY=0.5;exitDx=0;exitDy=0;fontColor=#F0F0F0;strokeColor=#FFFFFF;" parent="1" source="8" target="116" edge="1">
                    <mxGeometry width="160" relative="1" as="geometry">
                        <mxPoint x="460" y="380" as="sourcePoint"/>
                        <mxPoint x="620" y="380" as="targetPoint"/>
                    </mxGeometry>
                </mxCell>
            </root>
        </mxGraphModel>
    </diagram>
</mxfile>